# xmcd
#
# Track frame offsets: 
#        150
#        11601
#        42358
#        55760
#        72263
#        85391
#        99200
#        113769
#        128615
#        141973
#        156125
#        169389
#        182311
#        196679
#        210426
#        220373
#        234816
#        247641
#
# Disc length: 3467 seconds
#
# Revision: 2
# Processed by: cddbd v1.5.2PL0 Copyright (c) Steve Scherf et al.
# Submitted via: ExactAudioCopy v0.99pb5
#
DISCID=e20d8912
DTITLE=Various Artist - Verve Jazzclub Highlights - The History of Jazz Vol.1
DTITLE=Various Artist - CD3 - The 40s
DYEAR=2008
DGENRE=Jazz
TTITLE0=Benny Goodman - The Wold Is Waiting For The Sunrise
TTITLE1=Lois Armstrong and The Allstars - On The Sunny Side Of The Stree
TTITLE1=t
TTITLE2=Coleman Hawkins and The Chocolate Dandies - Dedication
TTITLE3=Ben Webster With The Big Sid Catlett Quartet - Memories Of You
TTITLE4=Nat "King" Cole Trio - Sweet Lorraine
TTITLE5=Bill Harris and His Septet - Characteristically, B.H.
TTITLE6=Lionel Hampton and His Orchestra - Flying Home
TTITLE7=Ella Fitzgerald - How High Is The Moon
TTITLE8=Jay McShann and His Orchestra - Lonely Boy Blues
TTITLE9=Lester Young Quartet - Sometimes I'm Happy
TTITLE10=Teddy Wilson With Edmond Hall Quartett - Night And Day
TTITLE11=Chubby Jackson and his Orchestra - Northwest Passage
TTITLE12=Art Tatum With Coleman Hawkins - The Esquire All Stars
TTITLE13=Charlie Barnet and His Orchestra - Skyliner
TTITLE14=Woody Herrmann and His Orchestra - Woodsheddin' With Woody
TTITLE15=James P. Johnson - Riffs
TTITLE16=Roy Eldridge and His Orchestra - Rockin' Chair
TTITLE17=Andy Kirk and His Twelve Clouds Of Joy - Ring Dem Bells
EXTD=YEAR: 2008
EXTT0=
EXTT1=
EXTT2=
EXTT3=
EXTT4=
EXTT5=
EXTT6=
EXTT7=
EXTT8=
EXTT9=
EXTT10=
EXTT11=
EXTT12=
EXTT13=
EXTT14=
EXTT15=
EXTT16=
EXTT17=
PLAYORDER=
